<svg xmlns="http://www.w3.org/2000/svg" xmlns:xlink="http://www.w3.org/1999/xlink" width="1024" height="1024" viewBox="260 240 500 500"><path fill="#56AAEE" d="M449.617 275.776C463.518 275.002 482.387 275.55 496.617 275.575L593.49 276.056C593.571 281.834 592.435 286.47 591.334 292.077C585.225 323.188 561.424 349.055 530.872 357.569C515.648 361.811 494.287 360.532 477.913 360.552L413.157 360.553C400.896 360.552 386.586 360.22 374.518 360.967C373.561 382.298 374.835 405.654 374.36 427.2C374.191 434.856 374.725 443.584 374.204 451.063L541.574 451.481C538.931 473.794 533.914 491.785 517.399 508.378C502.926 522.92 482.219 533.061 461.793 535.298C457.614 535.756 449.992 535.514 445.563 535.493L419.239 535.419C404.464 535.397 389.209 535.231 374.474 535.613C373.423 555.883 374.123 580.38 374.163 601.11L374.5 711.518C347.879 711.542 329.098 711.625 307.82 692.444C293.049 679.128 285.743 655.998 285.5 636.531C285.196 612.098 285.272 587.199 285.245 562.643L285.208 429.331L285.425 368.411C285.507 339.909 283.113 320.515 304.918 297.717C329.222 272.306 357.995 276.023 389.891 275.999C409.428 275.985 429.916 276.205 449.617 275.776Z"></path><path fill="#56AAEE" d="M612.025 276.445C621.402 276.407 627.837 278.105 636.833 280.382C689.74 293.774 731.612 339.825 735.429 395.013C738.314 436.734 725.051 462.478 697.184 492.682C713.918 509.661 724.456 522.859 732.361 546.048C758.389 622.409 699.701 699.808 622.949 709.49C601.908 712.144 581.739 711.165 560.591 711.375C524.245 711.821 487.822 710.917 451.509 711.561C451.76 694.707 454.622 685.307 463.414 670.705C466.863 665.25 470.607 659.793 475.046 655.093C489.853 639.483 509.788 629.729 531.2 627.618C539.234 626.83 550.273 627.147 558.533 627.071C573.738 626.93 588.899 627.102 604.126 626.784C615.911 626.538 621.524 624.799 631.413 618.292C634.178 616.473 637.496 614.387 639.706 611.813C649.099 600.873 652.08 593.331 651.444 579.234C650.952 567.285 645.607 556.054 636.644 548.136C618.025 531.496 590.669 535.861 567.427 535.436C549.511 535.108 530.279 535.205 512.424 536.123C519.673 531.959 524.088 527.985 530.579 522.469C549.082 506.745 558.949 482.908 561.009 459.096C561.888 448.929 562.662 451.219 571.869 451.193C593.925 451.128 618.182 453.812 635.935 437.893C653.349 421.81 653.397 393.471 636.745 376.82C617.174 356.857 593.213 361.002 568.168 360.065C597.817 340.684 611.408 311.136 612.025 276.445Z"></path></svg>